<svg xmlns="http://www.w3.org/2000/svg" width="61" height="14" viewBox="0 0 61 14" fill="none">
<path d="M1.31935 5.54332C0.936037 5.36853 0.686438 5.1105 0.552725 4.76092C0.419012 4.41134 0.401183 3.98684 0.49924 3.47079L1.14998 0.008255H3.06654L2.43363 3.36259C2.38905 3.59564 2.38905 3.78708 2.4158 3.9369C2.45145 4.08672 2.52277 4.19493 2.63865 4.26152C2.75454 4.3281 2.90608 4.36972 3.10219 4.36972C3.29831 4.36972 3.47659 4.33643 3.61922 4.26984C3.76184 4.20325 3.86882 4.09505 3.95796 3.94523C4.0471 3.79541 4.1095 3.60397 4.16298 3.36259L4.79589 0.008255H6.71245L6.06171 3.47912C5.96366 4.00349 5.78537 4.43631 5.51795 4.77757C5.25052 5.11883 4.90286 5.37685 4.46607 5.55164C4.02927 5.72644 3.4855 5.80967 2.85259 5.80967C2.21968 5.80967 1.70266 5.71811 1.32826 5.54332H1.31935Z" fill="#AA0023"/>
<path d="M7.42566 0.008255H9.3333L10.822 3.0463H10.8398L11.4103 0.008255H13.1753L12.1145 5.6765H10.3228L8.74496 2.54689H8.72713L8.13879 5.6765H6.37378L7.43457 0.008255H7.42566Z" fill="#AA0023"/>
<path d="M13.9063 0.00832341H15.8228L15.0384 4.195H17.6948L17.4185 5.66824H12.8455L13.9063 0V0.00832341Z" fill="#AA0023"/>
<path d="M18.916 0.008255H20.8326L19.7718 5.6765H17.8552L18.916 0.008255Z" fill="#AA0023"/>
<path d="M21.5635 0.008255H24.2021L24.5497 3.30432H24.5676L26.1632 0.008255H28.8018L27.741 5.6765H25.9671L26.6713 1.92264H26.6089L24.835 5.6765H23.3998L23.0343 1.91432H22.9719L22.2677 5.6765H20.5027L21.5635 0.008255Z" fill="#AA0023"/>
<path d="M29.5505 0.008255H31.4671L30.4063 5.6765H28.4897L29.5505 0.008255Z" fill="#AA0023"/>
<path d="M33.2857 1.4815H31.592L31.8684 0.008255H37.1634L36.8871 1.4815H35.2023L34.4179 5.66817H32.5013L33.2857 1.4815Z" fill="#AA0023"/>
<path d="M37.5735 0.008255H42.5298L42.2802 1.35665H39.2404L39.08 2.22228H41.8167L41.5849 3.47079H38.8482L38.6878 4.33643H41.8167L41.5671 5.68482H36.5305L37.5913 0.0165784L37.5735 0.008255Z" fill="#AA0023"/>
<path d="M43.2072 0.00832341H45.9616C46.6035 0.00832341 47.1383 0.116528 47.5573 0.34126C47.9763 0.565992 48.2704 0.882281 48.4398 1.29845C48.6092 1.71462 48.6359 2.2057 48.5289 2.78002C48.4131 3.40427 48.1902 3.93697 47.8693 4.36979C47.5484 4.80261 47.1294 5.12722 46.6302 5.34363C46.131 5.56004 45.5516 5.66824 44.8919 5.66824H42.1553L43.2161 0L43.2072 0.00832341ZM45.7834 4.10344C45.9973 4.00356 46.1667 3.83709 46.3093 3.62901C46.4519 3.42092 46.55 3.14625 46.6035 2.80499C46.6659 2.4887 46.657 2.23067 46.5946 2.02259C46.5232 1.82283 46.4074 1.67301 46.2202 1.57312C46.0419 1.47324 45.8012 1.4233 45.507 1.4233H44.8474L44.3214 4.25326H45.0257C45.3198 4.25326 45.5694 4.20332 45.7834 4.09512V4.10344Z" fill="#AA0023"/>
<path d="M1.6937 9.68006H0L0.276341 8.20682H5.57139L5.29505 9.68006H3.61026L2.82581 13.8667H0.90925L1.6937 9.68006Z" fill="#AA0023"/>
<path d="M5.98145 8.20682H9.54713C9.92153 8.20682 10.2514 8.2734 10.5277 8.39826C10.804 8.52311 11.0091 8.70622 11.1428 8.95592C11.2765 9.1973 11.3032 9.49695 11.2408 9.83821C11.1874 10.1046 11.0893 10.3376 10.9288 10.529C10.7684 10.7205 10.5812 10.8786 10.3672 10.9952C10.1533 11.1117 9.92153 11.2032 9.68085 11.2615L9.66302 11.3614C9.91262 11.428 10.0998 11.5279 10.2246 11.661C10.3494 11.8025 10.4564 12.0273 10.5366 12.3436C10.6168 12.6598 10.7149 13.1676 10.8219 13.8751H8.82508C8.82508 13.7669 8.79834 13.6587 8.78051 13.5504C8.75377 13.3174 8.72703 13.1093 8.69137 12.9095C8.65571 12.7098 8.62006 12.5516 8.57548 12.4268C8.53091 12.3019 8.46851 12.2021 8.3972 12.1355C8.3348 12.0606 8.25457 12.0106 8.1476 11.9773C8.04063 11.944 7.91583 11.9274 7.76429 11.9274H7.20269L6.83721 13.8834H4.92065L5.98145 8.21514V8.20682ZM8.80725 10.7205C8.94097 10.6622 9.03902 10.5873 9.11034 10.4958C9.18165 10.4042 9.22622 10.2793 9.25297 10.1378C9.29754 9.91312 9.25296 9.75497 9.12817 9.65509C9.00337 9.55521 8.79834 9.50527 8.522 9.50527H7.64841L7.40772 10.8037H8.3348C8.51309 10.8037 8.67354 10.7788 8.80725 10.7205Z" fill="#AA0023"/>
<path d="M12.3015 13.7419C11.9182 13.5671 11.6686 13.3091 11.5349 12.9595C11.4012 12.6099 11.3834 12.1854 11.4814 11.6694L12.1322 8.20682H14.0487L13.4158 11.5612C13.3712 11.7942 13.3712 11.9856 13.398 12.1355C13.4336 12.2853 13.5049 12.3935 13.6208 12.4601C13.7367 12.535 13.8883 12.5683 14.0844 12.5683C14.2805 12.5683 14.4588 12.535 14.6014 12.4684C14.744 12.4018 14.851 12.2936 14.9401 12.1438C15.0293 11.994 15.1006 11.8025 15.1452 11.5612L15.7781 8.20682H17.6946L17.0439 11.6777C16.9458 12.2021 16.7676 12.6349 16.5001 12.9761C16.2327 13.3174 15.885 13.5754 15.4482 13.7419C15.0114 13.9167 14.4677 13.9999 13.8348 13.9999C13.2019 13.9999 12.6848 13.9084 12.3104 13.7336L12.3015 13.7419Z" fill="#AA0023"/>
<path d="M18.408 8.20682H23.3643L23.1147 9.55521H20.0749L19.9145 10.4208H22.6511L22.4194 11.6694H19.6827L19.5222 12.535H22.6511L22.4015 13.8834H17.365L18.4258 8.21514L18.408 8.20682Z" fill="#AA0023"/>
<path d="M26.1812 13.7585C25.8335 13.617 25.5839 13.4173 25.4413 13.1592C25.2897 12.9012 25.2541 12.5933 25.3076 12.2353H27.0458C27.0458 12.3269 27.0726 12.4101 27.135 12.4767C27.1974 12.5433 27.2776 12.5933 27.3935 12.6265C27.5005 12.6598 27.6342 12.6765 27.7857 12.6765C27.964 12.6765 28.1245 12.6432 28.2582 12.5849C28.3919 12.5183 28.4989 12.4351 28.588 12.3186C28.6771 12.2021 28.7306 12.0772 28.7574 11.9274C28.7841 11.7692 28.7841 11.6361 28.7395 11.5195C28.695 11.403 28.6237 11.3198 28.5078 11.2532C28.3919 11.1866 28.2493 11.1616 28.0621 11.1616C27.8749 11.1616 27.7233 11.1866 27.5807 11.2365C27.4381 11.2865 27.3311 11.3614 27.242 11.4529H25.6107L26.8319 8.20682H30.87L30.6204 9.53024H27.8838L27.5361 10.4458H27.5807C27.7501 10.3459 27.9462 10.2544 28.1601 10.1878C28.3741 10.1212 28.6147 10.0879 28.9 10.0879C29.2833 10.0879 29.6131 10.1628 29.8806 10.3043C30.148 10.4458 30.3352 10.6539 30.4511 10.9286C30.558 11.2032 30.5848 11.5279 30.5135 11.9107C30.4332 12.3186 30.2639 12.6765 30.0054 12.9845C29.7379 13.2924 29.3992 13.5338 28.9713 13.7003C28.5434 13.8667 28.0621 13.9583 27.5094 13.9583C26.9567 13.9583 26.5199 13.8834 26.1723 13.7419L26.1812 13.7585Z" fill="#AA0023"/>
<path d="M31.8773 13.6338C31.4583 13.3924 31.1641 13.0428 30.9948 12.61C30.8343 12.1689 30.8076 11.6695 30.9145 11.0951C31.0304 10.4709 31.2622 9.92986 31.6009 9.48039C31.9397 9.03093 32.3675 8.68135 32.8846 8.43997C33.3927 8.19859 33.9632 8.08206 34.5872 8.08206C35.0953 8.08206 35.5232 8.15697 35.8797 8.30679C36.2363 8.45662 36.5216 8.67302 36.7177 8.96434C36.9138 9.25566 37.0297 9.61357 37.0564 10.0381H35.2112C35.1844 9.92986 35.131 9.8383 35.0596 9.75507C34.9883 9.68016 34.8903 9.61357 34.7744 9.57195C34.6585 9.53033 34.5248 9.51369 34.3822 9.51369C34.088 9.51369 33.8473 9.58028 33.6423 9.71345C33.4372 9.84662 33.2857 10.0297 33.1609 10.2545C33.0361 10.4792 32.9559 10.7456 32.8935 11.0535C32.8311 11.3865 32.8222 11.6695 32.8578 11.8942C32.8935 12.1272 32.9915 12.302 33.152 12.4186C33.3124 12.5434 33.5353 12.6017 33.8295 12.6017C34.0612 12.6017 34.2574 12.5684 34.4267 12.5018C34.5961 12.4352 34.7298 12.327 34.8368 12.1855C34.9438 12.044 35.0062 11.8775 35.0329 11.6695L35.7728 11.8276H33.9008L34.1147 10.7039H37.0119L36.9138 11.2283C36.8068 11.7943 36.6107 12.2854 36.3255 12.7016C36.0402 13.1177 35.6569 13.434 35.1755 13.6587C34.6942 13.8835 34.1236 14 33.464 14C32.8043 14 32.2962 13.8752 31.8773 13.6338Z" fill="#AA0023"/>
<path d="M40.2924 8.20687H43.0469C43.6887 8.20687 44.2235 8.31507 44.6425 8.53981C45.0615 8.76454 45.3556 9.08083 45.525 9.497C45.6944 9.91317 45.7211 10.4043 45.6141 10.9786C45.4983 11.6028 45.2754 12.1355 44.9545 12.5683C44.6336 13.0012 44.2146 13.3258 43.7154 13.5422C43.2162 13.7586 42.6368 13.8668 41.9771 13.8668H39.2405L40.3013 8.19855L40.2924 8.20687ZM42.8686 12.302C43.0825 12.2021 43.2519 12.0356 43.3945 11.8276C43.5371 11.6195 43.6352 11.3448 43.6887 11.0119C43.7511 10.6956 43.7422 10.4375 43.6798 10.2295C43.6084 10.0297 43.4926 9.87988 43.3054 9.77999C43.1271 9.68011 42.8864 9.63017 42.5922 9.63017H41.9326L41.4066 12.4601H42.1109C42.405 12.4601 42.6546 12.4102 42.8686 12.302Z" fill="#AA0023"/>
<path d="M48.0655 8.20682H49.9909L51.0874 13.8751H49.0995L48.7073 9.98803H48.6805L46.7105 13.8751H44.7939L48.0565 8.20682H48.0655ZM47.593 11.7443H49.0817L49.2065 12.9428H46.9868L47.593 11.7443Z" fill="#AA0023"/>
<path d="M52.7276 9.68006H51.0339L51.3103 8.20682H56.6053L56.329 9.68006H54.6442L53.8597 13.8667H51.9432L52.7276 9.68006Z" fill="#AA0023"/>
<path d="M57.9781 8.20682H59.9035L61 13.8751H59.0121L58.6199 9.98803H58.5931L56.6231 13.8751H54.7065L57.9691 8.20682H57.9781ZM57.5056 11.7443H58.9943L59.1191 12.9428H56.8994L57.5056 11.7443Z" fill="#AA0023"/>
</svg>